<svg id="visual" viewBox="0 0 900 600" width="900" height="600" xmlns="http://www.w3.org/2000/svg" xmlns:xlink="http://www.w3.org/1999/xlink" version="1.1"><rect x="0" y="0" width="900" height="600" fill="#931C1C"></rect><path d="M0 231L129 230L257 196L386 182L514 164L643 174L771 181L900 153L900 0L771 0L643 0L514 0L386 0L257 0L129 0L0 0Z" fill="#f5730a"></path><path d="M0 143L129 199L257 130L386 195L514 142L643 182L771 142L900 169L900 0L771 0L643 0L514 0L386 0L257 0L129 0L0 0Z" fill="#da5b09"></path><path d="M0 102L129 136L257 111L386 129L514 97L643 122L771 159L900 87L900 0L771 0L643 0L514 0L386 0L257 0L129 0L0 0Z" fill="#be4407"></path><path d="M0 93L129 69L257 90L386 68L514 114L643 62L771 76L900 77L900 0L771 0L643 0L514 0L386 0L257 0L129 0L0 0Z" fill="#a32d04"></path><path d="M0 36L129 28L257 35L386 26L514 52L643 52L771 42L900 40L900 0L771 0L643 0L514 0L386 0L257 0L129 0L0 0Z" fill="#871400"></path></svg>